<svg width="341" height="326" viewBox="0 0 341 326" fill="#c4971b" xmlns="http://www.w3.org/2000/svg">
<path d="M152.198 13.1287C157.886 -4.37623 182.651 -4.37623 188.338 13.1287L215.508 96.7478C218.052 104.576 225.347 109.876 233.578 109.876H321.5C339.906 109.876 347.559 133.429 332.668 144.248L261.538 195.927C254.878 200.765 252.092 209.341 254.635 217.17L281.805 300.789C287.493 318.294 267.458 332.85 252.567 322.032L181.436 270.352C174.777 265.514 165.76 265.514 159.1 270.352L87.9698 322.032C73.0793 332.85 53.0441 318.294 58.7318 300.789L65.4144 280.222L70.6683 264.052C75.291 249.825 84.4124 237.485 96.658 228.893L174.134 174.528C179.319 170.889 176.061 162.742 169.797 163.683L80.4427 177.096C65.9101 179.277 51.1024 175.659 39.2136 167.021L25.3638 156.959L7.8685 144.248C-7.02206 133.429 0.630674 109.876 19.0364 109.876H106.959C115.19 109.876 122.485 104.576 125.029 96.7478L152.198 13.1287Z"/>
</svg>
