<svg xmlns="http://www.w3.org/2000/svg" viewBox="0 0 200 200" width="200" height="200">
  <!-- Eagle Body -->
  <path d="M100 50 L130 80 L120 130 L100 150 L80 130 L70 80 Z" fill="#c9a93b" />
  
  <!-- Left Wing -->
  <path d="M70 100 L30 80 L40 120 Z" fill="#c9a93b" transform="rotate(-5 70 100)" />
  
  <!-- Right Wing -->
  <path d="M130 100 L170 80 L160 120 Z" fill="#c9a93b" transform="rotate(5 130 100)" />
  
  <!-- Crown -->
  <path d="M85 60 L95 50 L100 60 L105 50 L115 60" stroke="#c9a93b" stroke-width="3" fill="none" />
  
  <!-- Shield -->
  <path d="M85 90 L115 90 L110 130 L90 130 Z" fill="#8b0000" />
  
  <!-- Horseman (simplified) -->
  <circle cx="100" cy="110" r="10" fill="#c9a93b" />
  <path d="M95 105 L105 115 M105 105 L95 115" stroke="#8b0000" stroke-width="2" />
</svg> 